<?xml version="1.0" encoding="UTF-8"?>
<svg xmlns="http://www.w3.org/2000/svg" xmlns:xlink="http://www.w3.org/1999/xlink" width="30px" height="30px" viewBox="0 0 30 30" version="1.1">
<g id="surface1">
<path style=" stroke:none;fill-rule:nonzero;fill:rgb(91.372549%,82.745098%,5.098039%);fill-opacity:1;" d="M 7.199219 1.800781 C 4.222656 1.800781 1.800781 4.222656 1.800781 7.199219 L 1.800781 22.800781 C 1.800781 25.777344 4.222656 28.199219 7.199219 28.199219 L 22.800781 28.199219 C 25.777344 28.199219 28.199219 25.777344 28.199219 22.800781 L 28.199219 7.199219 C 28.199219 4.222656 25.777344 1.800781 22.800781 1.800781 Z M 22.800781 4.800781 L 24.601562 4.800781 C 24.929688 4.800781 25.199219 5.070312 25.199219 5.398438 L 25.199219 7.199219 C 25.199219 7.53125 24.929688 7.800781 24.601562 7.800781 L 22.800781 7.800781 C 22.46875 7.800781 22.199219 7.53125 22.199219 7.199219 L 22.199219 5.398438 C 22.199219 5.070312 22.46875 4.800781 22.800781 4.800781 Z M 15 6 C 18.199219 6 21.011719 7.679688 22.609375 10.199219 L 25.199219 10.199219 L 25.199219 22.199219 C 25.199219 23.855469 23.855469 25.199219 22.199219 25.199219 L 7.800781 25.199219 C 6.144531 25.199219 4.800781 23.855469 4.800781 22.199219 L 4.800781 10.199219 L 7.390625 10.199219 C 8.988281 7.679688 11.800781 6 15 6 Z M 15 7.199219 C 10.699219 7.199219 7.199219 10.699219 7.199219 15 C 7.199219 19.300781 10.699219 22.800781 15 22.800781 C 19.300781 22.800781 22.800781 19.300781 22.800781 15 C 22.800781 10.699219 19.300781 7.199219 15 7.199219 Z M 15 9.601562 C 17.976562 9.601562 20.398438 12.023438 20.398438 15 C 20.398438 17.976562 17.976562 20.398438 15 20.398438 C 12.023438 20.398438 9.601562 17.976562 9.601562 15 C 9.601562 12.023438 12.023438 9.601562 15 9.601562 Z M 15 9.601562 "/>
</g>
</svg>
