<?xml version="1.0" standalone="no"?>
<!DOCTYPE svg PUBLIC "-//W3C//DTD SVG 20010904//EN"
 "http://www.w3.org/TR/2001/REC-SVG-20010904/DTD/svg10.dtd">
<svg version="1.0" xmlns="http://www.w3.org/2000/svg"
 width="192.000000pt" height="192.000000pt" viewBox="0 0 192.000000 192.000000"
 preserveAspectRatio="xMidYMid meet">

<g transform="translate(0.000000,192.000000) scale(0.100000,-0.100000)"
fill="#000000" stroke="none">
<path d="M800 1905 c-405 -69 -719 -387 -786 -795 -104 -638 458 -1200 1096
-1096 412 67 729 384 796 796 105 642 -464 1205 -1106 1095z m137 -545 c-4
-72 -9 -135 -11 -139 -3 -5 -73 -12 -156 -16 l-150 -7 0 -44 0 -43 132 -3 133
-3 -3 -75 c-1 -41 -5 -91 -8 -112 l-5 -36 -125 -7 -124 -7 0 -213 0 -212 -77
-7 c-42 -3 -125 -6 -186 -6 l-110 0 7 393 c3 215 9 454 13 530 l6 137 335 0
335 0 -6 -130z m735 70 c-1 -30 -5 -92 -8 -136 l-6 -81 -152 -8 c-83 -3 -152
-8 -153 -9 -1 -1 -5 -21 -9 -44 l-6 -41 108 -3 109 -3 -3 -85 c-5 -149 4 -137
-123 -145 l-109 -8 0 -53 0 -54 155 0 155 0 -5 -27 c-2 -16 -7 -86 -11 -156
-4 -83 -10 -130 -18 -132 -6 -2 -148 -6 -315 -10 l-304 -6 7 338 c3 186 9 425
13 531 l6 192 336 -2 335 -3 -2 -55z"/>
</g>
</svg>
